<?xml version="1.0" standalone="no"?><!DOCTYPE svg PUBLIC "-//W3C//DTD SVG 1.1//EN" "http://www.w3.org/Graphics/SVG/1.1/DTD/svg11.dtd"><svg t="1504599256235" class="icon" style="" viewBox="0 0 1024 1024" version="1.1" xmlns="http://www.w3.org/2000/svg" p-id="6524" xmlns:xlink="http://www.w3.org/1999/xlink" width="200" height="200"><defs><style type="text/css"></style></defs><path d="M897.873929 286.894126c-0.137123-0.236384-0.277316-0.468674-0.414439-0.704035-0.025583-0.045025-0.052189-0.091074-0.077771-0.137123C814.551222 142.587486 664.216285 62.381769 509.652024 62.369489c-75.877131 0-152.738683 19.318998-223.173872 59.991326C72.572364 245.861594-0.714779 519.374968 122.787022 733.269499c0.016373 0.027629 0.032746 0.055259 0.048095 0.081864 0.145309 0.252757 0.286526 0.50756 0.432859 0.760317 123.490545 213.903741 397.008013 287.191908 610.903567 163.691129C948.075285 774.323521 1021.352195 500.793774 897.873929 286.894126zM710.998775 861.503069c-64.083527 37.009915-134.103254 54.597479-203.160049 54.607712-140.485615 0-277.108249-72.801073-352.576057-203.041346C43.063283 518.399757 109.809453 269.623787 304.414663 157.260673 497.518682 45.775556 743.99426 110.481254 857.709161 301.505915c0.768503 1.298576 1.532913 2.600221 2.289136 3.90903C972.40746 500.127601 905.709385 749.095953 710.998775 861.503069z" p-id="6525" fill="#d81e06"></path><path d="M828.34539 327.029218c-67.964928-117.712959-191.301977-183.523827-318.103942-183.523827-62.269205-0.011256-125.347846 15.848966-183.135994 49.213865-175.507246 101.340059-235.644905 325.749062-134.322242 501.256308 101.334943 175.518502 325.742922 235.656161 501.261425 134.310985C869.552907 726.962863 929.680333 502.552837 828.34539 327.029218zM686.41589 815.093063c-55.383378 31.971156-115.850541 47.176462-175.518502 47.176462-0.011256 0-0.021489 0-0.032746 0-121.544217 0-239.733013-63.079664-304.877709-175.911452-97.114828-168.217213-39.480176-383.313106 128.724757-480.428957 168.218236-97.131201 383.325385-39.49041 480.427934 128.72578C912.280034 502.870062 854.633103 717.978235 686.41589 815.093063z" p-id="6526" fill="#d81e06"></path><path d="M675.878906 735.673246 649.996422 744.637408 626.518708 730.438011 627.07641 757.873874 606.373902 775.810385 632.596124 783.789103 643.264091 809.05965 658.915559 786.565333 686.220439 784.248567 669.671531 762.366188Z" p-id="6527" fill="#d81e06"></path><path d="M354.682533 309.208341 370.334002 286.713001 397.638881 284.396235 381.078717 262.513856 387.288139 235.821937 361.394399 244.785076 337.937151 230.591819 338.483596 258.027681 317.782112 275.959076 344.014566 283.936771Z" p-id="6528" fill="#d81e06"></path><path d="M773.126764 644.209114 747.25349 653.18351 723.775776 638.985136 724.344734 666.409742 703.641203 684.346253 729.853192 692.323948 740.521159 717.594495 756.172627 695.100178 783.477506 692.783413 766.928598 670.90001Z" p-id="6529" fill="#d81e06"></path><path d="M468.029044 238.823294 478.697011 264.09384 494.349503 241.593384 521.653359 239.281735 505.082962 217.410612 511.301594 190.70232 485.430366 199.670575 461.952652 185.488575 462.520587 212.895785 441.80887 230.827179Z" p-id="6530" fill="#d81e06"></path><path d="M819.994188 556.407396 826.192354 529.715477 800.320103 538.677593 776.841366 524.491499 777.411347 551.914058 756.709863 569.850569 782.919804 577.830311 793.587771 603.100858 809.23924 580.606541 836.543096 578.288752Z" p-id="6531" fill="#d81e06"></path><path d="M589.890486 243.49571 600.570733 268.755 616.211968 246.27194 643.526057 243.954151 626.95566 222.071771 633.163035 195.374736 607.292831 204.344015 583.824327 190.150758 584.382029 217.574341 563.669288 235.504712Z" p-id="6532" fill="#d81e06"></path><path d="M557.975613 768.44258 532.081872 777.404696 508.613368 763.206322 509.17107 790.642185 488.468562 808.568463 514.690784 816.557414 525.358751 841.817728 541.001009 819.323411 568.314075 817.016879 551.744701 795.134499Z" p-id="6533" fill="#d81e06"></path><path d="M296.140209 314.924529 270.246469 323.904041 246.780011 309.710784 247.347946 337.134367 226.645438 355.060645 252.856403 363.04448 263.52437 388.315026 279.176862 365.821733 306.490951 363.503944 289.920554 341.632821Z" p-id="6534" fill="#d81e06"></path><path d="M447.425797 752.801345 421.55457 761.764484 398.075833 747.5876 398.644791 775.012206 377.93205 792.93746 404.153248 800.917202 414.821215 826.197982 430.472684 803.693432 457.777563 801.375643 441.207166 779.493264Z" p-id="6535" fill="#d81e06"></path><path d="M254.408759 418.472883 228.525252 427.434999 205.047538 413.252998 205.616496 440.676581 184.913988 458.607976 211.12393 466.587718 221.79292 491.858264 237.444389 469.363947 264.749268 467.057415 248.190127 445.175035Z" p-id="6536" fill="#d81e06"></path><path d="M628.933711 513.974981c-11.837606-3.496637-32.747845-9.257851-47.809889-12.963243-2.491751-7.885598-6.262634-15.788591-11.301394-24.505114l-34.025954-58.941414-12.984732 7.514137 34.364669 59.509349c14.089903 24.424272 18.34174 43.420929-2.361791 87.687108l15.652492 5.192256c10.963703-26.243711 15.378246-44.563962 13.893428-61.013609 13.367449 3.914146 28.79993 8.689916 39.948851 12.340049L628.933711 513.974981z" p-id="6537" fill="#d81e06"></path><path d="M670.041968 455.339536c1.923816-29.79049-5.148253-59.061141-20.831444-94.721315l16.875343-9.738805-7.728008-13.373589-61.844533 35.704177c-1.988284-11.504008-4.797259-23.078625-8.099469-34.616402l-15.029298 6.612605c8.099469 26.593681 13.620206 61.669548 9.608845 91.89085l-34.353412-59.510372-67.276243 38.835494 62.456471 108.176768 12.994965-7.498788-54.858422-94.989421 41.305755-23.844058 54.398958 94.212732 12.997012-7.492648-26.092261-45.168736 14.778588 5.426593c0.873903-6.962575 1.343601-14.214746 1.310855-21.434172 15.487739 17.417695 32.53909 30.834262 52.192709 40.687678-3.072989 20.647249-11.094686 42.590004-25.106818 68.003813l16.240893 6.644327c12.43931-25.007557 20.561291-46.771233 24.026206-67.63133 19.117406 7.574512 40.649815 12.19781 65.941851 14.390755l1.486864-17.133216C709.741132 466.800565 688.623161 462.460724 670.041968 455.339536zM654.161279 447.978894c-20.331048-11.017938-37.490869-26.428929-54.104245-47.601134-0.207731-3.492544-0.536212-7.185656-1.049912-10.771321l36.44198-21.029966C647.942647 397.798005 654.936945 422.456614 654.161279 447.978894z" p-id="6538" fill="#d81e06"></path><path d="M425.335686 560.703235l72.511477-41.863457-8.383948-14.537088-74.249051 42.869367c-0.459464-0.787946-0.710175-1.673106-1.158383-2.448772-1.901303-3.290953-10.077519-17.445324-18.723434-32.868595l64.750723-37.386492-8.274454-14.34573-64.575738 37.283138c-9.967002-17.762549-18.96391-33.769105-18.96391-33.769105l-15.706727 9.066493c0 0 8.985652 16.002462 18.975167 33.763988l-37.600363 21.707394c-1.376347-9.553587-3.442402-18.952654-5.716188-28.244274l-16.646122 4.711302c6.251378 24.297382 10.055007 54.148247 8.065699 79.343069l17.510816-0.546446c0.502443-11.661597 0.130983-24.38641-0.939395-37.446867l43.611264-25.184589c8.985652 16.002462 17.183358 30.661324 18.996656 34.257222 0.230244 0.381693 0.26299 0.88516 0.503467 1.279133l-76.972069 44.429909 8.394181 14.549368 74.435293-42.990117c6.689353 29.490661-5.257747 64.303538-38.97671 107.543342l17.095353 9.007141c31.992645-41.73145 43.73099-78.237899 41.556465-107.990526 29.993105 20.156062 66.072835 24.910343 112.11138 18.24248l0.143263-19.47761C487.18943 588.574003 453.448978 582.977541 425.335686 560.703235z" p-id="6539" fill="#d81e06"></path></svg>