<?xml version="1.0" standalone="no"?><!DOCTYPE svg PUBLIC "-//W3C//DTD SVG 1.1//EN" "http://www.w3.org/Graphics/SVG/1.1/DTD/svg11.dtd"><svg t="1504599008382" class="icon" style="" viewBox="0 0 1024 1024" version="1.1" xmlns="http://www.w3.org/2000/svg" p-id="1011" xmlns:xlink="http://www.w3.org/1999/xlink" width="200" height="200"><defs><style type="text/css"></style></defs><path d="M793.546667 793.685333C662.186667 925.056 460.245333 948.597333 302.474667 850.997333l-6.208-3.829333 29.034666-16.896 2.197334 1.269333c144.266667 83.370667 327.392 59.232 445.344-58.709333 69.706667-69.706667 108.085333-162.325333 108.021333-260.736v-2.496l29.013333-16.874667 0.234667 7.36c3.146667 110.986667-38.24 215.285333-116.565333 293.6z m-50.154667-46.794666l-21.226667 16.608-4.074666-26.912-20.8-15.189334 22.954666-12.853333 8.042667-25.994667 18.485333 18.656 26.133334-0.565333-11.861334 24.394667 7.893334 25.290666-25.546667-3.434666z m-132.010667 80.405333l-26.186666 6.730667 6.72-26.208-13.205334-22.250667 26.261334-2.709333 17.941333-20.309334 9.578667 24.309334 24.448 9.642666-20.597334 17.792-2.688 26.229334-22.272-13.226667zM830.656 620.053333l-15.210667 22.186667-12.117333-24.256-24.490667-8.170667 18.090667-19.178666-0.277333-27.178667 23.381333 12.181333 24.714667-8.597333-3.861334 26.837333 15.125334 21.632-25.354667 4.544z m179.893333-201.173333a46.4 46.4 0 0 1-9.472 7.274667L193.12 892.682667a45.621333 45.621333 0 0 1-34.752 4.544 45.696 45.696 0 0 1-27.84-21.333334L6.122667 660.405333a45.866667 45.866667 0 0 1 16.789333-62.570666l807.946667-466.517334c10.602667-6.144 22.944-7.786667 34.794666-4.608s21.717333 10.773333 27.808 21.397334l124.384 215.477333a45.770667 45.770667 0 0 1-7.296 55.296zM41.173333 622.314667a26.794667 26.794667 0 0 0-4.288 32.266666l114.058667 197.525334a26.741333 26.741333 0 0 0 36.469333 9.792l790.026667-456.010667c2.016-1.152 3.882667-2.581333 5.504-4.202667a26.837333 26.837333 0 0 0 4.288-32.298666L873.194667 171.893333a26.666667 26.666667 0 0 0-16.426667-12.565333 26.112 26.112 0 0 0-19.989333 2.688L46.677333 618.112a26.133333 26.133333 0 0 0-5.504 4.202667z m657.237334 76.085333c-64.96 64.917333-160.736 91.52-249.941334 69.376l-10.517333-2.581333 37.973333-21.962667 1.514667 0.213333c74.208 11.125333 147.157333-12.917333 200.106667-65.898666a231.968 231.968 0 0 0 52.256-79.776l0.576-1.429334 38.08-21.802666-3.008 10.368a265.141333 265.141333 0 0 1-67.04 113.493333zM466.912 839.541333l-17.152 19.914667-10.773333-23.413333-25.408-9.184 20.437333-17.706667 1.642667-25.749333 23.168 12.672L485.109333 789.333333l-5.76 25.482667 14.656 21.813333-27.093333 2.912z m231.765333-645.802666l-2.197333-1.28c-144.256-83.381333-327.392-59.242667-445.322667 58.677333-69.664 69.674667-108.021333 162.272-108.021333 260.757333l-0.021333 2.517334-28.981334 16.842666-0.234666-7.36c-3.157333-110.986667 38.208-215.253333 116.533333-293.578666C361.792 98.954667 563.744 75.392 721.536 172.981333l6.208 3.818667-29.066667 16.938667z m-150.549333 87.104l-1.504-0.213334c-73.12-10.922667-147.904 13.696-200.106667 65.888a234.229333 234.229333 0 0 0-52.448 79.776l-0.554666 1.408-37.930667 21.866667 3.008-10.389333a265.354667 265.354667 0 0 1 67.072-113.525334c64.928-64.938667 160.714667-91.498667 249.941333-69.354666l10.517334 2.602666-37.994667 21.941334z m17.696-52.672l-25.792 8.661333 3.946667-25.877333-16.128-20.672 26.88-4.949334 15.872-21.098666 12.437333 22.570666 26.261333 7.445334-19.370666 19.136 0.117333 25.792-24.224-11.008z m-119.157333-0.810667l-18.112 20.288-9.578667-24.298667-24.426667-9.642666 20.714667-17.792 2.816-26.304 22.218667 13.205333 26.389333-6.890667-6.890667 26.389334 13.205334 22.229333-26.336 2.816z m-230.186667 208.874667l-24.789333 8.682666 3.946666-27.114666-15.168-21.802667 25.408-4.608 15.637334-22.442667 11.946666 24.448 24.512 8.234667-18.218666 19.306667 0.064 27.477333-23.338667-12.181333z m80.010667-133.568l-26.176 0.746666 11.946666-24.554666-7.872-25.365334 25.6 3.349334 21.44-16.661334 4.096 26.88 20.778667 15.189334-23.104 12.981333-8.213333 26.133333-18.496-18.698666z" fill="#1296db" p-id="1012"></path><path d="M500.405333 646.453333a26.112 26.112 0 0 1-3.626666 3.050667c-8.661333 5.824-18.986667 7.872-30.805334 6.101333-10.24-1.322667-20.757333-5.002667-31.210666-10.869333a261.770667 261.770667 0 0 1-16.725334 47.392l-1.685333 3.541333-3.712-1.269333a194.122667 194.122667 0 0 0-17.642667-5.12l-5.258666-1.28 2.368-4.874667a236 236 0 0 0 18.922666-55.221333c-18.154667-15.082667-39.808-42.453333-64.426666-81.408l-66.538667 38.72 12.928 22.250667 56.554667-32.896 2.133333 3.968c13.632 25.141333 24.96 46.986667 33.589333 64.885333 8.042667 17.109333 6.848 31.018667-3.541333 41.408-2.410667 2.421333-5.333333 4.650667-8.704 6.602667-5.418667 3.125333-12.736 7.061333-22.037333 11.776l-3.114667 1.557333-2.218667-2.688a338.186667 338.186667 0 0 0-12.48-14.250667l-4.245333-4.629333 5.824-2.389333c9.984-4.096 17.664-7.722667 23.488-11.136 0.938667-0.533333 1.706667-1.12 2.346667-1.749334 1.152-1.162667 4.693333-4.682667-0.490667-15.701333a885.066667 885.066667 0 0 0-21.376-41.877333l-33.088 19.306666c24.256 45.045333 34.218667 83.957333 29.525333 115.733334l-0.810666 5.664-5.248-2.293334a575.946667 575.946667 0 0 0-17.941334-7.541333l-3.093333-1.269333 0.384-3.296c3.242667-27.082667-7.317333-61.749333-31.36-103.050667l-33.109333-56.885333 88.874666-51.754667c-5.76-9.002667-20.714667-32.810667-20.714666-32.810667l23.957333-13.930666 2.176 3.818666c4.778667 8.32 10.645333 18.154667 17.685333 29.482667l32.810667-19.114667a433.312 433.312 0 0 0-34.005333-2.901333l-4.864-0.213333 3.605333-23.445334 3.690667-0.021333a429.333333 429.333333 0 0 1 42.624 1.664l4.608 0.405333-2.474667 16.832 21.589333-12.565333 12.885334 22.037333-66.88 38.922667c17.450667 27.264 32.832 48.021333 45.909333 61.909333 1.493333-21.205333 0.298667-43.392-3.541333-66.112l-0.746667-4.48 28.074667-3.722666 0.576 4.352c4.138667 32.288 4.245333 63.029333 0.298666 91.338666 17.92 11.541333 31.125333 15.434667 38.250667 11.285334 0.021333-0.021333 0.042667-0.042667 0.064-0.042667 1.088-1.088 1.450667-3.733333 0.234667-8.704a402.325333 402.325333 0 0 0-12.544-31.114667l-2.368-5.269333 5.696-0.874667a318.762667 318.762667 0 0 0 17.834666-3.136l3.562667-0.746666 1.386667 3.370666c6.144 15.050667 10.773333 28.032 13.653333 38.538667 3.093333 11.029333 1.237333 20.032-5.482667 26.741333zM782.442667 478.730667a45.354667 45.354667 0 0 1-8.213334 6.378666c-11.413333 6.805333-24.149333 13.866667-38.357333 21.248l-3.157333 1.642667-2.261334-2.773333a405.184 405.184 0 0 0-13.269333-15.637334l-4.010667-4.501333 5.525334-2.410667a338.154667 338.154667 0 0 0 38.005333-19.285333c1.269333-0.789333 2.410667-1.664 3.338667-2.602667 2.773333-2.773333 5.845333-7.744 0.298666-18.602666a2825.12 2825.12 0 0 0-51.338666-95.68l-39.125334 22.784c4.768 8.746667 8.448 15.744 10.997334 20.896 28.096 54.122667 29.045333 105.536 2.762666 152.693333l-1.952 3.52-3.690666-1.664a133.514667 133.514667 0 0 0-18.464-6.464l-5.514667-1.514667 2.901333-4.906666c11.178667-18.826667 17.088-38.432 17.717334-58.698667l-0.618667 0.618667c-9.045333 8.746667-18.506667 18.112-28.416 28.010666a3619.669333 3619.669333 0 0 0-37.098667 37.642667l-3.072 3.136-20.576-20.32s20.8-19.232 29.034667-26.976l-52.234667-89.728-29.781333 17.365333-13.290667-22.826666 86.112-50.154667 11.765334 20.16 17.589333-10.24a3233.546667 3233.546667 0 0 0-21.034667-37.312l-2.154666-3.776 23.466666-13.653333 2.176 3.882666c7.914667 13.994667 14.848 26.453333 20.821334 37.333334l62.496-36.416 2.154666 3.925333a6892.298667 6892.298667 0 0 1 63.392 117.962667c9.642667 19.616 8.661333 35.36-2.922666 46.944z m-118.250667-25.301334c4.053333 6.4 7.466667 11.2 10.133333 14.378667l0.384 0.469333c-0.202667-21.376-6.186667-43.498667-17.973333-66.197333a745.568 745.568 0 0 0-10.101333-19.253333l-30.037334 17.493333-11.626666-19.989333-19.925334 11.584 48.981334 84.085333c4.778667-4.693333 9.429333-9.28 13.962666-13.802667l13.237334-13.418666 2.965333 4.650666z" fill="#1296db" p-id="1013"></path></svg>